<?xml version="1.0" encoding="UTF-8" standalone="no"?>
<svg
   xmlns:dc="http://purl.org/dc/elements/1.1/"
   xmlns:cc="http://creativecommons.org/ns#"
   xmlns:rdf="http://www.w3.org/1999/02/22-rdf-syntax-ns#"
   xmlns:svg="http://www.w3.org/2000/svg"
   xmlns="http://www.w3.org/2000/svg"
   xmlns:xlink="http://www.w3.org/1999/xlink"
   xmlns:sodipodi="http://sodipodi.sourceforge.net/DTD/sodipodi-0.dtd"
   xmlns:inkscape="http://www.inkscape.org/namespaces/inkscape"
   width="212.52838mm"
   height="213.26427mm"
   viewBox="0 0 212.52838 213.26427"
   version="1.1"
   id="svg8"
   inkscape:version="1.0.2 (1.0.2+r75+1)"
   sodipodi:docname="blob-home.svg">
  <defs
     id="defs2">
    <rect
       x="14.515361"
       y="43.837833"
       width="125.12569"
       height="30.107615"
       id="rect1334" />
    <rect
       x="13.591127"
       y="44.066475"
       width="118.20016"
       height="22.486906"
       id="rect1311" />
    <rect
       x="-2.4491401"
       y="-30.447262"
       width="116.87243"
       height="84.970566"
       id="rect1299" />
    <inkscape:path-effect
       effect="spiro"
       id="path-effect364"
       is_visible="true"
       lpeversion="1" />
    <inkscape:path-effect
       effect="spiro"
       id="path-effect56"
       is_visible="true"
       lpeversion="1" />
    <inkscape:path-effect
       effect="spiro"
       id="path-effect24"
       is_visible="true"
       lpeversion="1" />
    <inkscape:path-effect
       effect="spiro"
       id="path-effect20"
       is_visible="true"
       lpeversion="1" />
    <linearGradient
       inkscape:collect="always"
       xlink:href="#linearGradient1233"
       id="linearGradient1235-3"
       x1="133.45374"
       y1="-3.7942383"
       x2="166.11172"
       y2="209.70219"
       gradientUnits="userSpaceOnUse"
       gradientTransform="matrix(0.88807577,0,0,0.90711474,-4.3521939,7.2229078)" />
    <linearGradient
       inkscape:collect="always"
       id="linearGradient1233">
      <stop
         style="stop-color:#ff21e0;stop-opacity:0.58551975"
         offset="0"
         id="stop1229" />
      <stop
         style="stop-color:#1b00a6;stop-opacity:1"
         offset="1"
         id="stop1231" />
    </linearGradient>
    <inkscape:path-effect
       effect="spiro"
       id="path-effect1548"
       is_visible="true"
       lpeversion="1" />
    <rect
       x="14.515361"
       y="43.837833"
       width="125.12569"
       height="30.107615"
       id="rect1334-3" />
    <rect
       x="14.515361"
       y="43.837833"
       width="125.12569"
       height="30.107615"
       id="rect1676" />
    <linearGradient
       inkscape:collect="always"
       xlink:href="#linearGradient1233"
       id="linearGradient1754"
       gradientUnits="userSpaceOnUse"
       gradientTransform="matrix(0.88807577,0,0,0.90711474,-240.00738,-3.8278612)"
       x1="133.45374"
       y1="-3.7942383"
       x2="166.11172"
       y2="209.70219" />
  </defs>
  <sodipodi:namedview
     id="base"
     pagecolor="#ffffff"
     bordercolor="#666666"
     borderopacity="1.0"
     inkscape:pageopacity="0.0"
     inkscape:pageshadow="2"
     inkscape:zoom="0.3614132"
     inkscape:cx="912.28637"
     inkscape:cy="513.84226"
     inkscape:document-units="mm"
     inkscape:current-layer="layer1"
     inkscape:document-rotation="0"
     showgrid="false"
     inkscape:window-width="1366"
     inkscape:window-height="731"
     inkscape:window-x="0"
     inkscape:window-y="0"
     inkscape:window-maximized="1" />
  <metadata
     id="metadata5">
    <rdf:RDF>
      <cc:Work
         rdf:about="">
        <dc:format>image/svg+xml</dc:format>
        <dc:type
           rdf:resource="http://purl.org/dc/dcmitype/StillImage" />
        <dc:title />
      </cc:Work>
    </rdf:RDF>
  </metadata>
  <g
     inkscape:label="Layer 1"
     inkscape:groupmode="layer"
     id="layer1"
     transform="translate(235.95738,9.3697016)">
    <text
       xml:space="preserve"
       style="font-style:normal;font-weight:normal;font-size:12.0921px;line-height:1.05;font-family:sans-serif;letter-spacing:-1.12183px;word-spacing:-0.0079375px;opacity:0.790518;fill:#ffffff;fill-opacity:1;stroke:none;stroke-width:0.302302"
       x="68.270111"
       y="61.607105"
       id="text1305"
       transform="scale(0.94015013,1.0636599)"><tspan
         sodipodi:role="line"
         id="tspan1303"
         x="68.270111"
         y="61.607105"
         style="font-style:normal;font-variant:normal;font-weight:bold;font-stretch:normal;font-size:25.7965px;font-family:sans-serif;-inkscape-font-specification:'sans-serif, Bold';font-variant-ligatures:normal;font-variant-caps:normal;font-variant-numeric:normal;font-variant-east-asian:normal;fill:#000000;stroke-width:0.302302">Web App</tspan><tspan
         sodipodi:role="line"
         x="68.270111"
         y="88.693428"
         style="font-style:normal;font-variant:normal;font-weight:bold;font-stretch:normal;font-size:25.7965px;font-family:sans-serif;-inkscape-font-specification:'sans-serif, Bold';font-variant-ligatures:normal;font-variant-caps:normal;font-variant-numeric:normal;font-variant-east-asian:normal;fill:#000000;stroke-width:0.302302"
         id="tspan1307">Task</tspan></text>
    <text
       xml:space="preserve"
       id="text1332"
       style="font-style:normal;font-weight:normal;font-size:10.5833px;line-height:1.25;font-family:sans-serif;white-space:pre;shape-inside:url(#rect1334-3);opacity:0.790518;fill:#ffffff;fill-opacity:1;stroke:none;"
       transform="translate(50.113976,58.513199)"><tspan
         x="14.515625"
         y="53.20163"><tspan
           style="font-style:normal;font-variant:normal;font-weight:bold;font-stretch:normal;font-size:6.35px;font-family:sans-serif;-inkscape-font-specification:'sans-serif, Bold';font-variant-ligatures:normal;font-variant-caps:normal;font-variant-numeric:normal;font-variant-east-asian:normal;fill:#000000">Lorem Ipsum Lorem Ipsum Lorem </tspan></tspan><tspan
         x="14.515625"
         y="66.430756"><tspan
           style="font-style:normal;font-variant:normal;font-weight:bold;font-stretch:normal;font-size:6.35px;font-family:sans-serif;-inkscape-font-specification:'sans-serif, Bold';font-variant-ligatures:normal;font-variant-caps:normal;font-variant-numeric:normal;font-variant-east-asian:normal;fill:#000000">Lore Ipsum Lorem Ipsum Lorem </tspan></tspan><tspan
         style="visibility:hidden"
         x="14.515625"
         y="83.309052"><tspan
           dx="0 2.3626463 4.5454588 3.7796144 4.5206547 6.6166496"
           style="font-style:normal;font-variant:normal;font-weight:bold;font-stretch:normal;font-size:6.35px;font-family:sans-serif;-inkscape-font-specification:'sans-serif, Bold';font-variant-ligatures:normal;font-variant-caps:normal;font-variant-numeric:normal;font-variant-east-asian:normal;fill:#000000">Ipsum </tspan></tspan></text>
    <path
       style="opacity:0.790518;mix-blend-mode:lighten;fill:url(#linearGradient1754);fill-opacity:1;stroke:#810d71;stroke-width:0.237849;stroke-linecap:butt;stroke-linejoin:miter;stroke-miterlimit:4;stroke-dasharray:none;stroke-opacity:0.785213"
       d="m -215.06035,29.74306 c 15.96546,-16.38929 35.77762,-29.51556598 57.95819,-35.1304412 2.64654,-0.6699558 5.31969,-1.2323576 8.00603,-1.718778 25.07145,-4.5397328 51.887366,-2.1503771 74.36464,9.8479102 18.098738,9.661041 32.857875,25.380248 41.55783,43.960097 8.146955,17.398849 10.992334,37.104892 9.02827,56.216022 -3.035344,29.53511 -17.770732,57.76252 -40.47056,76.90028 -14.375905,12.12003 -31.966516,20.66114 -50.59875,23.1913 -14.25399,1.93562 -29.13959,0.27847 -42.16395,-5.82799 -7.52165,-3.52652 -14.38971,-8.52726 -19.78347,-14.84539 -6.08134,-7.12354 -10.15224,-15.70456 -14.12877,-24.18482 -3.97653,-8.48026 -7.99656,-17.07789 -13.99941,-24.2677 -0.96242,-1.15272 -1.97235,-2.26471 -2.97672,-3.38106 -6.25361,-6.95084 -12.32974,-14.12004 -17.24276,-22.07517 -4.91301,-7.95513 -8.65158,-16.760245 -9.8833,-26.028728 -2.08355,-15.678422 3.2949,-31.858298 12.99533,-44.350524 2.2668,-2.919189 4.75842,-5.657568 7.3374,-8.305008 z"
       id="path362-5"
       inkscape:original-d="m -215.06035,29.74306 c 2.44554,-2.768577 38.63898,-23.420054 57.95819,-35.1304412 19.31916,-11.7103918 5.3376,-1.145614 8.00603,-1.718778 2.66845,-0.573164 49.57667,6.56551122 74.36464,9.8479102 24.78798,3.282392 27.70547,29.306972 41.55783,43.960097 13.85234,14.653125 6.01903,37.477605 9.02827,56.216022 3.00921,18.73843 -26.98014,51.2671 -40.47056,76.90028 -13.49041,25.6332 -33.73228,15.4611 -50.59875,23.1913 -16.86653,7.73018 -28.10907,-3.88509 -42.16395,-5.82799 -14.05487,-1.94287 -13.18873,-9.89669 -19.78347,-14.84539 -6.59472,-4.94872 -18.7519,-32.30145 -28.12818,-48.45252 -9.3763,-16.15105 -1.98424,-2.25379 -2.97672,-3.38106 -0.99248,-1.12726 -18.08382,-32.069009 -27.12606,-48.103898 -9.04228,-16.034869 8.66379,-29.566769 12.99533,-44.350524 4.33154,-14.783741 4.89184,-5.536427 7.3374,-8.305008 z"
       inkscape:path-effect="#path-effect1548" />
    <path
       style="fill:#ffffff;fill-opacity:1;stroke:#000000;stroke-width:0.161483px;stroke-linecap:butt;stroke-linejoin:miter;stroke-opacity:1"
       d="m 329.87902,191.19916 c 2.11652,-7.99207 5.31724,-15.70033 10.0176,-22.13346 4.69928,-6.43166 10.76968,-11.42699 17.15766,-15.60574 6.19081,-4.04977 12.74295,-7.39822 19.53457,-9.93633 10.88541,-4.06799 22.4617,-6.04072 33.88175,-4.89052 15.0429,1.51507 29.65709,8.59458 40.77965,20.13837 5.76602,5.98438 10.61566,13.17012 13.77005,21.2668 2.02136,5.18844 3.33574,10.71313 4.06066,16.32254 0.94074,7.2792 0.89411,14.69294 0.23565,22.01161 -0.72423,8.04968 -2.19414,16.0411 -4.73792,23.60453 -1.46734,4.36289 -3.29612,8.58779 -5.6518,12.42169 -3.82751,6.22931 -8.9599,11.29477 -14.35533,15.80495 -8.49579,7.10185 -17.94868,13.06561 -28.27751,15.59172 -15.44522,3.77742 -32.22086,-0.69108 -44.82579,-11.46082 -1.50157,-1.28296 -2.95595,-2.65969 -4.15967,-4.29516 -1.23595,-1.67926 -2.18455,-3.59891 -3.1422,-5.49611 -0.79984,-1.58458 -1.61105,-3.16184 -2.43351,-4.73157 l -4.75952,-9.72847 c -1.8757,-4.02244 -4.33549,-7.69619 -7.2511,-10.82966 -2.2298,-2.39642 -4.71801,-4.47248 -7.32212,-6.32524 -2.49533,-1.77536 -5.12069,-3.36627 -7.32644,-5.57761 -4.27197,-4.28282 -6.63317,-10.64401 -7.24117,-17.06044 -0.60801,-6.41643 0.40926,-12.90882 2.04649,-19.09108 z"
       id="path54"
       sodipodi:nodetypes="sssssssssssssssscccsss" />
    <text
       xml:space="preserve"
       id="text1297"
       style="font-style:normal;font-weight:normal;font-size:10.5833px;line-height:1.25;font-family:sans-serif;white-space:pre;shape-inside:url(#rect1299);fill:#ffffff;fill-opacity:1;stroke:none;" />
    <text
       xml:space="preserve"
       id="text1309"
       style="font-style:normal;font-weight:normal;font-size:10.5833px;line-height:1.25;font-family:sans-serif;white-space:pre;shape-inside:url(#rect1311);fill:#ffffff;fill-opacity:1;stroke:none;" />
  </g>
</svg>
